<svg
  width="60"
  height="64"
  viewBox="0 0 70 84"
  fill="none"
  xmlns="http://www.w3.org/2000/svg"
>
  <path
    fill-rule="evenodd"
    clip-rule="evenodd"
    d="M58 32C58 22.0589 49.9411 14 40 14C30.0589 14 22 22.0589 22 32C22 41.9411 30.0589 50 40 50H49V42H40C34.4772 42 30 37.5228 30 32C30 26.4772 34.4772 22 40 22C45.5228 22 50 26.4772 50 32V38C50 46.8366 42.8366 54 34 54H24C17.3726 54 12 59.3726 12 66C12 72.6274 17.3726 78 24 78H34C47.2548 78 58 67.2548 58 54V32ZM34 62H24C21.7909 62 20 63.7909 20 66C20 68.2091 21.7909 70 24 70H34C37.3137 70 40 67.3137 40 64C40 62.8954 39.1046 62 38 62H34Z"
    fill="url(#paint0_linear_glink_icon)"
  />
  <defs>
    <linearGradient
      id="paint0_linear_glink_icon"
      x1="12"
      y1="14"
      x2="58"
      y2="78"
      gradientUnits="userSpaceOnUse"
    >
      <stop stop-color="#6366F1" />
      <stop offset="1" stop-color="#EC4899" />
    </linearGradient>
  </defs>
</svg>
